<?xml version="1.0" encoding="iso-8859-1"?>
<!-- Uploaded to: SVG Repo, www.svgrepo.com, Generator: SVG Repo Mixer Tools -->
<svg height="800px" width="800px" version="1.1" id="Layer_1" xmlns="http://www.w3.org/2000/svg" xmlns:xlink="http://www.w3.org/1999/xlink" 
	 viewBox="0 0 512 512" xml:space="preserve">
<polygon style="fill:#ABB9C6;" points="346.4,478.938 165.605,478.938 178.512,448.737 183.427,437.253 194.153,412.162 
	317.852,412.162 328.578,437.253 333.492,448.737 "/>
<polygon style="fill:#93A0AA;" points="328.578,437.253 183.427,437.253 194.153,412.162 317.852,412.162 "/>
<path style="fill:#B6C7D3;" d="M393.462,490.425H118.535l0,0c9.791-14.369,26.054-22.967,43.442-22.967h188.043
	C367.408,467.458,383.67,476.056,393.462,490.425L393.462,490.425z"/>
<path style="fill:#ABB9C6;" d="M512,55.095v326.991c0,18.511-14.997,33.52-33.509,33.52H33.509C14.997,415.606,0,400.597,0,382.086
	V55.095c0-18.511,14.997-33.52,33.509-33.52h444.983C497.003,21.575,512,36.584,512,55.095z"/>
<path style="fill:#C5D6E2;" d="M512,55.095v326.991c0,18.511-14.997,33.52-33.509,33.52H180.898l24.552-59.875L342.47,21.575
	h136.021C497.003,21.575,512,36.584,512,55.095z"/>
<path style="fill:#93A0AA;" d="M256.002,393.214c-3.448,0-6.634-2.135-7.958-5.317c-1.465-3.521-0.359-7.694,2.622-10.058
	c6.24-4.949,15.53,0.968,13.723,8.703C263.488,390.388,259.968,393.214,256.002,393.214z"/>
<path style="fill:#B8E9F2;" d="M512,55.095v300.636H0V55.095c0-18.511,14.997-33.52,33.509-33.52h444.983
	C497.003,21.575,512,36.585,512,55.095"/>
<path style="fill:#D4F7FC;" d="M512,55.095v300.636H205.45L342.47,21.575h136.021C497.003,21.575,512,36.585,512,55.095"/>
<path style="fill:#9BB9D3;" d="M382.863,207.101v-36.885l-30.959-2.044c-2.526-11.885-7.212-22.967-13.619-32.831l20.452-23.334
	l-26.079-26.09l-4.444,3.893v0.011l-18.89,16.548c-0.425-0.276-0.861-0.551-1.286-0.815c-9.554-5.994-20.188-10.381-31.556-12.804
	l-2.044-30.948h-36.873l-2.044,30.948c-11.885,2.538-22.978,7.212-32.831,13.619l-23.346-20.452l-4.364,4.352l-21.727,21.738
	l20.463,23.334c-6.408,9.864-11.093,20.946-13.631,32.831l-30.936,2.044v36.885l30.936,2.033
	c2.539,11.897,7.223,22.978,13.631,32.831l-20.463,23.346l9.129,9.118l16.961,16.973l23.346-20.463
	c9.635,6.258,20.441,10.875,32.027,13.447c0.264,0.069,0.54,0.126,0.804,0.184l1.183,17.96l0.861,12.976h36.873l2.044-30.936
	c11.885-2.538,22.967-7.223,32.843-13.631l23.334,20.463l26.079-26.09l-20.452-23.346c6.408-9.853,11.093-20.934,13.619-32.831
	L382.863,207.101 M256.006,236.889c-0.609,0-1.206-0.011-1.803-0.034c-25.803-0.953-46.439-22.174-46.439-48.207
	c0-26.63,21.6-48.23,48.242-48.23c12.551,0,23.977,4.789,32.556,12.643c9.635,8.819,15.675,21.497,15.675,35.587
	C304.236,215.289,282.647,236.889,256.006,236.889"/>
<path style="fill:#86A5BC;" d="M256.003,245.502c-31.346,0-56.848-25.502-56.848-56.848s25.502-56.848,56.848-56.848
	s56.848,25.502,56.848,56.848S287.35,245.502,256.003,245.502 M256.003,149.031c-21.848,0-39.622,17.774-39.622,39.622
	s17.775,39.622,39.622,39.622c21.848,0,39.622-17.775,39.622-39.622C295.626,166.805,277.852,149.031,256.003,149.031"/>
<path style="fill:#D4F7FC;" d="M478.491,21.575H342.47l-34.434,83.977c0.001,0,0.001,0.001,0.001,0.001
	c0.425,0.264,0.861,0.54,1.286,0.815l18.89-16.548V89.81l4.444-3.893l26.079,26.09l-20.452,23.334
	c6.408,9.864,11.093,20.946,13.619,32.831l30.959,2.044v36.885l-30.959,2.033c-2.526,11.897-7.212,22.978-13.619,32.831
	l20.452,23.346l-26.079,26.09l-23.334-20.463c-9.876,6.408-20.957,11.093-32.843,13.631l-2.044,30.936h-36.873l-0.861-12.976
	l-1.183-17.96c-0.264-0.057-0.54-0.115-0.804-0.184c-0.002-0.001-0.006-0.001-0.009-0.002l-29.256,71.349H512V55.095
	C512,36.585,497.003,21.575,478.491,21.575"/>
<path style="fill:#ADC5DA;" d="M332.658,85.918l-4.444,3.893v0.011l-18.89,16.548c-0.425-0.276-0.861-0.551-1.286-0.815
	l-0.001-0.001l0,0l-16.043,39.126c12.727,10.434,20.86,26.272,20.86,43.975c0,31.346-25.502,56.848-56.848,56.848
	c-1.772,0-3.524-0.082-5.255-0.241l-16.042,39.123l0,0c0.002,0.001,0.006,0.001,0.009,0.002c0.264,0.069,0.54,0.126,0.804,0.184
	l1.183,17.96l0.861,12.976h36.873l2.044-30.936c11.885-2.538,22.967-7.223,32.843-13.631l23.334,20.463l26.079-26.09l-20.452-23.346
	c6.408-9.853,11.093-20.934,13.619-32.831l30.959-2.033v-36.885l-30.959-2.044c-2.526-11.885-7.212-22.967-13.619-32.831
	l20.452-23.334L332.658,85.918"/>
<path style="fill:#D4F7FC;" d="M285.015,161.694l-27.287,66.546c21.051-0.905,37.899-18.315,37.899-39.586
	C295.626,178.249,291.596,168.771,285.015,161.694"/>
<path style="fill:#9CB5C7;" d="M291.993,144.679l-6.977,17.015l0,0c6.582,7.077,10.611,16.556,10.611,26.96
	c0,21.271-16.846,38.681-37.899,39.586l0,0l-6.98,17.022c1.731,0.16,3.483,0.241,5.255,0.241c31.346,0,56.848-25.502,56.848-56.848
	C312.851,170.95,304.718,155.112,291.993,144.679"/>
</svg>